<?xml version="1.0" encoding="utf-8"?>
<!-- Generator: Adobe Illustrator 27.8.0, SVG Export Plug-In . SVG Version: 6.00 Build 0)  -->
<svg version="1.1" id="Layer_1" xmlns="http://www.w3.org/2000/svg" xmlns:xlink="http://www.w3.org/1999/xlink" x="0px" y="0px"
	 viewBox="0 0 428.5 116.7" style="enable-background:new 0 0 428.5 116.7;" xml:space="preserve">
<style type="text/css">
	.st0{fill:#749475;}
	.st1{font-family:'Quicksand-Medium';}
	.st2{font-size:76.21px;}
</style>
<text transform="matrix(0.99 0 0 1 0 94.9502)" class="st0 st1 st2">Easy </text>
<text transform="matrix(0.99 0 0 1 189.9019 94.9502)" class="st0 st1 st2">P</text>
<text transform="matrix(0.99 0 0 1 234.7886 94.9502)" class="st0 st1 st2">antry</text>
<path class="st0" d="M364.9,30.3v3.3c0,1-0.8,1.9-1.9,1.9H158.4c-1,0-1.9-0.8-1.9-1.9v-3.3c0-1,0.8-1.9,1.9-1.9H363
	C364.1,28.5,364.9,29.3,364.9,30.3z"/>
<path class="st0" d="M192,14.7h17.5c1.1,0,2,0.9,2,2v10c0,1.1-0.9,2-2,2H192c-1.1,0-2-0.9-2-2v-10C190,15.6,190.9,14.7,192,14.7z"/>
<path class="st0" d="M191.8,7.1h17.8c1,0,1.9,0.8,1.9,1.9v3.4c0,1-0.8,1.9-1.9,1.9h-17.8c-1,0-1.9-0.8-1.9-1.9V9
	C190,8,190.8,7.1,191.8,7.1z"/>
<path class="st0" d="M217.7,14h10.1c1.4,0,2.6,1.2,2.6,2.6v9.7c0,1.4-1.2,2.6-2.6,2.6h-10.1c-1.4,0-2.6-1.2-2.6-2.6v-9.7
	C215.1,15.2,216.3,14,217.7,14z"/>
<path class="st0" d="M218.2,6.3h9.1c1.7,0,3.1,1.4,3.1,3.1v1.2c0,1.7-1.4,3.1-3.1,3.1h-9.1c-1.7,0-3.1-1.4-3.1-3.1V9.4
	C215.1,7.7,216.5,6.3,218.2,6.3z"/>
<path class="st0" d="M252,22.3c0,4.8-3.9,7.6-8.6,7.6s-8.6-2.8-8.6-7.6c0-2.2,0.6-4.5,2.2-5.8c2.2-1.6,4-0.1,6.6-0.1
	c2.4,0,4.2-1.4,5.9-0.2C251.4,17.4,252,19.9,252,22.3L252,22.3z"/>
<path class="st0" d="M243.4,12.2L243.4,12.2c0.3,0,0.5,0.2,0.5,0.5v6.9c0,0.3-0.2,0.5-0.5,0.5l0,0c-0.3,0-0.5-0.2-0.5-0.5v-6.9
	C242.9,12.5,243.1,12.2,243.4,12.2z"/>
<path class="st0" d="M247.1,13.2c-0.1-0.1-0.5,0.1-0.8,0.2c-0.6,0.3-1.2,0.7-1.9,1.4c-1,1.1-1.6,2.3-1.2,2.6s1.4-0.3,2.5-1.5
	c0.7-0.8,1.1-1.6,1.3-2.2C247,13.6,247.2,13.3,247.1,13.2L247.1,13.2z"/>
<path class="st0" d="M194.7,110.7c2.3,1.7,4.7,3.3,7,5c0.3,0.2,0.7,0.5,1,0.7c0.5,0.4,1.4,0.4,1.9,0.2s1.2-0.6,1.5-1.2
	c0.3-0.6,0.5-1.3,0.2-1.9s-0.6-1.1-1.1-1.5c-2.3-1.7-4.7-3.3-7-5c-0.3-0.2-0.7-0.5-1-0.7c-0.5-0.4-1.4-0.4-1.9-0.2s-1.2,0.6-1.5,1.2
	c-0.3,0.6-0.5,1.3-0.2,1.9S194.2,110.3,194.7,110.7L194.7,110.7z"/>
<path class="st0" d="M197.9,110.2c2-2.1,4-4.2,6-6.2l0.9-0.9c0.9-0.9,1-2.6,0-3.5s-2.6-1-3.5,0c-2,2.1-4,4.2-6,6.2l-0.9,0.9
	c-0.9,0.9-1,2.6,0,3.5S196.9,111.2,197.9,110.2L197.9,110.2z"/>
<path class="st0" d="M368,29.5c-2.1-1.7-4.2-3.3-6.3-5l-0.9-0.7c-0.5-0.4-1-0.7-1.8-0.7c-0.6,0-1.4,0.3-1.8,0.7s-0.8,1.1-0.7,1.8
	c0,0.6,0.2,1.4,0.7,1.8c2.1,1.7,4.2,3.3,6.3,5l0.9,0.7c0.5,0.4,1,0.7,1.8,0.7c0.6,0,1.4-0.3,1.8-0.7s0.8-1.1,0.7-1.8
	C368.8,30.6,368.6,29.9,368,29.5L368,29.5z"/>
<path class="st0" d="M364.4,29.6c-1.8,2.1-3.6,4.1-5.4,6.2l-0.8,0.9c-0.4,0.5-0.7,1.1-0.7,1.8c0,0.6,0.3,1.3,0.7,1.8
	c0.9,0.9,2.6,1.1,3.5,0c1.8-2.1,3.6-4.2,5.4-6.2l0.8-0.9c0.4-0.5,0.7-1.1,0.7-1.8c0-0.6-0.3-1.4-0.7-1.8
	C367,28.7,365.3,28.5,364.4,29.6C364.4,29.6,364.4,29.6,364.4,29.6z"/>
<path class="st0" d="M366.2,106.1v3.3c0,1-0.9,1.9-1.9,1.9H197.9c-1,0-1.9-0.9-1.9-1.9v-3.3c0-1,0.9-1.9,1.9-1.9h166.5
	C365.4,104.2,366.2,105.1,366.2,106.1z"/>
<path class="st0" d="M361.4,87.2h3.4c1,0,1.9,0.8,1.9,1.9v20.3c0,1-0.8,1.9-1.9,1.9h-3.4c-1,0-1.9-0.8-1.9-1.9V89.1
	C359.5,88.1,360.4,87.2,361.4,87.2z"/>
<path class="st0" d="M158.5,32h3.4c1,0,1.9,0.8,1.9,1.9v28.6c0,1-0.8,1.9-1.9,1.9h-3.4c-1,0-1.9-0.8-1.9-1.9V33.9
	C156.6,32.8,157.4,32,158.5,32z"/>
<path class="st0" d="M168.5,14.5h10.6c4,0,7.3,3.3,7.3,7.3l0,0c0,4-3.3,7.3-7.3,7.3h-7c-4,0-7.3-3.3-7.3-7.3v-3.6
	C164.8,16.1,166.5,14.5,168.5,14.5L168.5,14.5z"/>
<path class="st0" d="M167.7,8.2h15.7c1.6,0,2.9,1.3,2.9,2.9v0c0,1.6-1.3,2.9-2.9,2.9h-15.7c-1.6,0-2.9-1.3-2.9-2.9v0
	C164.8,9.5,166.1,8.2,167.7,8.2z"/>
<path class="st0" d="M171.4,4.2h8.4c1.6,0,2.9,1.3,2.9,2.9v0c0,1.6-1.3,2.9-2.9,2.9h-8.4c-1.6,0-2.9-1.3-2.9-2.9v0
	C168.5,5.5,169.8,4.2,171.4,4.2z"/>
<path class="st0" d="M175.6,0L175.6,0c1.6,0,2.9,1.3,2.9,2.9v0c0,1.6-1.3,2.9-2.9,2.9h0c-1.6,0-2.9-1.3-2.9-2.9v0
	C172.7,1.3,174,0,175.6,0z"/>
</svg>
