<?xml version="1.0" encoding="UTF-8"?><svg id="Layer_1" xmlns="http://www.w3.org/2000/svg" viewBox="0 0 416.99 116.72"><defs><style>.cls-1{fill:#749475;stroke-width:0px;}</style></defs><line class="cls-1" x1="189.75" y1="108.56" x2="197.76" y2="114.23"/><path class="cls-1" d="m188.49,110.72c2.34,1.66,4.68,3.31,7.02,4.97.33.23.66.47.99.7.5.36,1.35.41,1.93.25s1.21-.61,1.49-1.15c.31-.58.46-1.28.25-1.93s-.59-1.1-1.15-1.49c-2.34-1.66-4.68-3.31-7.02-4.97-.33-.23-.66-.47-.99-.7-.5-.36-1.35-.41-1.93-.25s-1.21.61-1.49,1.15c-.31.58-.46,1.28-.25,1.93s.59,1.1,1.15,1.49h0Z"/><line class="cls-1" x1="189.85" y1="108.44" x2="196.71" y2="101.33"/><path class="cls-1" d="m191.62,110.21c2-2.08,4.01-4.15,6.01-6.23l.85-.88c.91-.94,1.01-2.61,0-3.54s-2.57-1.01-3.54,0c-2,2.08-4.01,4.15-6.01,6.23l-.85.88c-.91.94-1.01,2.61,0,3.54s2.57,1.01,3.54,0h0Z"/><line class="cls-1" x1="360.02" y1="31.23" x2="352.83" y2="25.56"/><path class="cls-1" d="m361.79,29.46c-2.1-1.66-4.2-3.31-6.31-4.97l-.89-.7c-.54-.43-1.05-.73-1.77-.73-.61,0-1.35.27-1.77.73s-.76,1.1-.73,1.77c.03.62.22,1.37.73,1.77,2.1,1.66,4.2,3.31,6.31,4.97l.89.7c.54.43,1.05.73,1.77.73.61,0,1.35-.27,1.77-.73s.76-1.1.73-1.77c-.03-.62-.22-1.37-.73-1.77h0Z"/><line class="cls-1" x1="359.93" y1="31.34" x2="353.77" y2="38.45"/><path class="cls-1" d="m358.17,29.58c-1.8,2.07-3.59,4.15-5.39,6.22l-.77.89c-.44.51-.73,1.08-.73,1.77,0,.61.27,1.35.73,1.77.94.86,2.62,1.06,3.54,0,1.8-2.07,3.59-4.15,5.39-6.22l.77-.89c.44-.51.73-1.08.73-1.77,0-.61-.27-1.35-.73-1.77-.94-.86-2.62-1.06-3.54,0h0Z"/><rect class="cls-1" x="183.72" y="7.14" width="21.55" height="7.18" rx="1.87" ry="1.87"/><rect class="cls-1" x="208.87" y="6.31" width="15.22" height="7.32" rx="3.06" ry="3.06"/><path class="cls-1" d="m29.84,48.62c1.05,0,1.92-.32,2.6-.95.68-.63,1.02-1.46,1.02-2.48,0-1.07-.34-1.93-1.02-2.59-.68-.66-1.54-.99-2.6-.99H3.62c-1.01,0-1.86.36-2.56,1.07-.7.71-1.06,1.58-1.06,2.59v46.03c0,1.02.35,1.88,1.06,2.59.7.71,1.56,1.07,2.56,1.07h26.22c1.05,0,1.92-.32,2.6-.95.68-.63,1.02-1.46,1.02-2.48s-.34-1.8-1.02-2.51c-.68-.71-1.54-1.07-2.6-1.07H7.46v-16.84h18.99c1.06,0,1.92-.3,2.6-.91.68-.61,1.02-1.45,1.02-2.51s-.34-1.85-1.02-2.52c-.68-.66-1.54-.99-2.6-.99H7.46v-15.55h22.38Z"/><path class="cls-1" d="m74.07,54.49c-1.05,0-1.91.36-2.56,1.07-.65.71-.98,1.6-.98,2.67v1.83c-1.36-1.73-3.18-3.15-5.46-4.27-2.29-1.12-4.76-1.68-7.42-1.68-3.32,0-6.36.89-9.12,2.67-2.76,1.78-4.94,4.26-6.52,7.43-1.58,3.18-2.37,6.74-2.37,10.71s.79,7.53,2.37,10.71c1.58,3.18,3.77,5.65,6.56,7.43s5.89,2.67,9.31,2.67c2.61,0,5.05-.62,7.31-1.87,2.26-1.24,4.04-2.75,5.35-4.53v1.98c0,1.07.33,1.94.98,2.63.65.69,1.51,1.03,2.56,1.03s1.92-.36,2.6-1.07c.68-.71,1.02-1.57,1.02-2.59v-33.08c0-1.12-.34-2.02-1.02-2.71-.68-.69-1.54-1.03-2.6-1.03Zm-4.78,27.66c-1.03,2.13-2.46,3.81-4.29,5.03-1.83,1.22-3.93,1.83-6.29,1.83s-4.46-.61-6.29-1.83c-1.83-1.22-3.27-2.9-4.29-5.03-1.03-2.13-1.54-4.55-1.54-7.24s.51-5.11,1.54-7.24c1.03-2.13,2.46-3.81,4.29-5.03,1.83-1.22,3.93-1.83,6.29-1.83s4.46.62,6.29,1.87c1.83,1.25,3.26,2.93,4.29,5.07,1.03,2.13,1.54,4.52,1.54,7.16s-.52,5.11-1.54,7.24Z"/><path class="cls-1" d="m109.71,74.15c-1.76-.81-3.97-1.57-6.63-2.29-3.06-.81-5.34-1.65-6.82-2.51-1.48-.86-2.25-2.18-2.3-3.96,0-1.88.67-3.21,2-4,1.33-.79,2.95-1.18,4.86-1.18s3.55.33,5.09.99c1.53.66,2.83,1.6,3.88,2.82.55.61,1.28.91,2.19.91.75,0,1.38-.23,1.88-.69.8-.76,1.21-1.55,1.21-2.36,0-.76-.3-1.5-.9-2.21-1.51-1.88-3.45-3.28-5.84-4.19-2.39-.91-4.78-1.37-7.2-1.37s-4.84.48-6.97,1.45c-2.14.97-3.84,2.31-5.12,4.04-1.28,1.73-1.92,3.73-1.92,6.02,0,2.59.64,4.69,1.92,6.29,1.28,1.6,2.85,2.82,4.71,3.66,1.86.84,4.19,1.64,7.01,2.4,2.86.76,5.04,1.6,6.52,2.52,1.48.91,2.22,2.24,2.22,3.96,0,1.88-.73,3.24-2.19,4.08-1.46.84-3.14,1.28-5.05,1.33-2.41,0-4.48-.43-6.22-1.3-1.73-.86-3.35-2.16-4.86-3.89-.75-.76-1.58-1.14-2.49-1.14-.65,0-1.23.18-1.73.53-1.06.71-1.58,1.57-1.58,2.59,0,.66.23,1.35.68,2.06,1.86,2.44,4.13,4.22,6.82,5.33,2.69,1.12,5.61,1.68,8.78,1.68,2.46,0,4.78-.47,6.97-1.41,2.19-.94,3.96-2.29,5.31-4.04s2.03-3.82,2.03-6.21c0-2.59-.6-4.69-1.81-6.29-1.21-1.6-2.69-2.81-4.45-3.62Z"/><path class="cls-1" d="m193.12,94.95c1,0,1.83-.36,2.49-1.07.65-.71.98-1.57.98-2.59v-16.84h14.17c2.66,0,5.12-.74,7.38-2.21,2.26-1.47,4.06-3.48,5.39-6.02,1.33-2.54,2-5.31,2-8.31s-.67-5.74-2-8.23c-1.33-2.49-3.13-4.46-5.39-5.91-2.26-1.45-4.72-2.17-7.38-2.17h-17.48c-1.01,0-1.86.36-2.56,1.07-.7.71-1.06,1.58-1.06,2.59v46.03c0,1.07.31,1.94.94,2.63.63.69,1.47,1.03,2.52,1.03Zm3.47-46.34h14.17c2.06,0,3.83.9,5.31,2.71,1.48,1.8,2.22,4,2.22,6.59,0,1.68-.34,3.25-1.02,4.73-.68,1.47-1.59,2.66-2.75,3.54-1.16.89-2.41,1.33-3.77,1.33h-14.17v-18.9Z"/><path class="cls-1" d="m263.05,93.92c.65.69,1.51,1.03,2.56,1.03s1.92-.36,2.6-1.07c.68-.71,1.02-1.57,1.02-2.59v-33.08c0-1.12-.34-2.02-1.02-2.71-.68-.69-1.54-1.03-2.6-1.03s-1.91.36-2.56,1.07c-.65.71-.98,1.6-.98,2.67v1.83c-1.36-1.73-3.18-3.15-5.46-4.27-2.29-1.12-4.76-1.68-7.42-1.68-3.32,0-6.36.89-9.12,2.67-2.76,1.78-4.94,4.26-6.52,7.43-1.58,3.18-2.37,6.74-2.37,10.71s.79,7.53,2.37,10.71c1.58,3.18,3.77,5.65,6.56,7.43,2.79,1.78,5.89,2.67,9.31,2.67,2.61,0,5.05-.62,7.31-1.87s4.04-2.75,5.35-4.53v1.98c0,1.07.33,1.94.98,2.63Zm-2.22-11.77c-1.03,2.13-2.46,3.81-4.29,5.03-1.83,1.22-3.93,1.83-6.29,1.83s-4.46-.61-6.29-1.83c-1.83-1.22-3.27-2.9-4.29-5.03-1.03-2.13-1.54-4.55-1.54-7.24s.51-5.11,1.54-7.24c1.03-2.13,2.46-3.81,4.29-5.03,1.83-1.22,3.93-1.83,6.29-1.83s4.46.62,6.29,1.87c1.83,1.25,3.27,2.93,4.29,5.07s1.54,4.52,1.54,7.16-.52,5.11-1.54,7.24Z"/><path class="cls-1" d="m307.39,93.89c.68.71,1.52,1.07,2.52,1.07s1.92-.36,2.6-1.07c.68-.71,1.02-1.57,1.02-2.59v-20.73c0-10.97-4.52-16.46-13.56-16.46-2.66,0-5.16.7-7.5,2.1-2.34,1.4-4.16,3.11-5.46,5.14v-2.67c0-1.02-.34-1.88-1.02-2.59-.68-.71-1.54-1.07-2.6-1.07s-1.85.36-2.52,1.07c-.68.71-1.02,1.58-1.02,2.59v32.62c0,1.07.33,1.94.98,2.63.65.69,1.51,1.03,2.56,1.03s1.92-.36,2.6-1.07c.68-.71,1.02-1.57,1.02-2.59v-20.65c0-1.78.46-3.42,1.39-4.92.93-1.5,2.21-2.69,3.84-3.58,1.63-.89,3.45-1.33,5.46-1.33,3.06,0,5.27.89,6.63,2.67,1.36,1.78,2.03,4.17,2.03,7.16v20.65c0,1.02.34,1.88,1.02,2.59Z"/><path class="cls-1" d="m341.19,62.11c.95,0,1.75-.3,2.37-.91.63-.61.94-1.4.94-2.36s-.31-1.76-.94-2.4c-.63-.63-1.42-.95-2.37-.95h-6.25v-6.4c0-1.02-.34-1.88-1.02-2.59-.68-.71-1.52-1.07-2.52-1.07-1.05,0-1.92.36-2.6,1.07-.68.71-1.02,1.58-1.02,2.59v6.4h-4.37c-.96,0-1.75.31-2.37.91-.63.61-.94,1.4-.94,2.36s.31,1.77.94,2.4c.63.64,1.42.95,2.37.95h4.37v23.02c0,2.95.54,5.14,1.62,6.59,1.08,1.45,2.31,2.35,3.69,2.71,1.38.36,2.9.53,4.56.53,1.51,0,2.86-.38,4.07-1.14,1.21-.76,1.81-1.68,1.81-2.74,0-.86-.23-1.57-.68-2.13-.45-.56-1.01-.84-1.66-.84-.35,0-.83.09-1.43.27-.6.18-1.08.27-1.43.27-2.26,0-3.39-1.27-3.39-3.81v-22.71h6.25Z"/><path class="cls-1" d="m375.92,55.13c-.96-.69-2.08-1.03-3.39-1.03-2.81.05-5.33.85-7.54,2.4-2.21,1.55-3.87,3.57-4.97,6.06v-3.89c0-1.02-.34-1.88-1.02-2.59-.68-.71-1.54-1.07-2.6-1.07s-1.85.36-2.52,1.07c-.68.71-1.02,1.58-1.02,2.59v30.3s-.01.08-.01.13v15.13h-161.2c-1.05,0-1.9.85-1.9,1.9v3.3c0,1.05.85,1.9,1.9,1.9h166.46c1.04,0,1.89-.85,1.89-1.89h0v-17.9c0-.08.02-.16.02-.25v-18.37c0-2.34.46-4.46,1.39-6.36.93-1.91,2.13-3.4,3.62-4.5,1.48-1.09,3-1.64,4.56-1.64.6,0,1.43.18,2.49.53.9.3,1.58.46,2.03.46.9,0,1.67-.32,2.3-.95.63-.63.94-1.56.94-2.78,0-1.02-.48-1.87-1.43-2.55Z"/><path class="cls-1" d="m415.97,55.7c-.68-.71-1.54-1.07-2.6-1.07s-1.91.34-2.56,1.03c-.65.69-.98,1.56-.98,2.63v20.88c0,2.9-.93,5.26-2.79,7.09-1.86,1.83-4.22,2.74-7.08,2.74s-5.17-.8-6.63-2.4c-1.46-1.6-2.19-4.08-2.19-7.43v-20.88c0-1.02-.34-1.88-1.02-2.59-.68-.71-1.54-1.07-2.6-1.07s-1.91.34-2.56,1.03c-.65.69-.98,1.56-.98,2.63v22.79c0,4.37,1.17,7.9,3.5,10.59,2.34,2.69,5.59,4.04,9.76,4.04,2.76,0,5.21-.51,7.35-1.52,2.13-1.02,3.88-2.44,5.24-4.27v1.52c0,8.08-3.89,12.12-11.68,12.12-1.61,0-3.01-.2-4.22-.61-1.21-.41-2.59-.96-4.14-1.68-.35-.15-.73-.23-1.13-.23-.7,0-1.33.23-1.88.69s-.98,1.12-1.28,1.98c-.1.4-.15.73-.15.99,0,1.47.93,2.64,2.79,3.51,1.16.61,2.64,1.09,4.45,1.45,1.81.36,3.64.53,5.5.53,5.68,0,10.25-1.57,13.71-4.72s5.2-7.9,5.2-14.25v-32.92c0-1.02-.34-1.88-1.02-2.59Z"/><path class="cls-1" d="m157.24,35.56h199.29c1.04,0,1.88-.84,1.88-1.88v-3.34c0-1.04-.84-1.88-1.88-1.88h-114.08c2.01-1.28,3.31-3.38,3.31-6.13,0-2.38-.67-4.89-2.52-6.09-1.22-.79-2.5-.34-3.99,0,.06-.06.12-.12.18-.19.68-.75,1.09-1.57,1.27-2.16.09-.29.23-.55.11-.66-.12-.11-.47.08-.78.23-.55.26-1.21.73-1.87,1.45-.18.2-.34.4-.49.6v-2.76c0-.29-.23-.52-.52-.52s-.52.23-.52.52v3.7c-2.21-.21-3.92-1.32-5.9.14-1.65,1.21-2.2,3.54-2.2,5.75,0,2.75,1.3,4.85,3.31,6.13h-8.85c.66-.47,1.1-1.24,1.1-2.11v-9.74c0-1.42-1.15-2.58-2.58-2.58h-10.06c-1.42,0-2.58,1.15-2.58,2.58v9.74c0,.87.44,1.64,1.1,2.11h-5.54c.51-.37.85-.97.85-1.64v-10.03c0-1.12-.91-2.03-2.03-2.03h-17.48c-1.12,0-2.03.91-2.03,2.03v10.03c0,.68.34,1.28.85,1.64h-8.89c2.61-1.1,4.45-3.68,4.45-6.7,0-4.01.35-7.27-3.66-7.27h-14.23c-4.01,0-3.66,3.25-3.66,7.27,0,3.01,1.83,5.6,4.45,6.7h-11.04c-1.04,0-1.88.84-1.88,1.88v3.34s0,.07.01.11c0,.04-.01.07-.01.11v28.63s0,.04,0,.07v16.59c0,2.9-.93,5.26-2.79,7.09-1.86,1.83-4.22,2.74-7.08,2.74s-5.17-.8-6.63-2.4c-1.46-1.6-2.19-4.08-2.19-7.43v-20.88c0-1.02-.34-1.88-1.02-2.59-.68-.71-1.54-1.07-2.6-1.07s-1.91.34-2.56,1.03c-.65.69-.98,1.56-.98,2.63v22.79c0,4.37,1.17,7.9,3.5,10.59,2.34,2.69,5.59,4.04,9.76,4.04,2.76,0,5.21-.51,7.35-1.52,2.13-1.02,3.88-2.44,5.24-4.27v1.52c0,8.08-3.89,12.12-11.68,12.12-1.61,0-3.01-.2-4.22-.61s-2.59-.96-4.14-1.68c-.35-.15-.73-.23-1.13-.23-.7,0-1.33.23-1.88.69-.55.46-.98,1.12-1.28,1.98-.1.4-.15.73-.15.99,0,1.47.93,2.64,2.79,3.51,1.16.61,2.64,1.09,4.45,1.45s3.64.53,5.5.53c5.68,0,10.25-1.57,13.71-4.72,3.47-3.15,5.2-7.9,5.2-14.25v-32.92c0-.06-.01-.12-.02-.18v-22.56Z"/><path class="cls-1" d="m161.48,14.03h15.73c1.61,0,2.91-1.3,2.91-2.91s-1.3-2.91-2.91-2.91h-.98c.15-.35.23-.74.23-1.14,0-1.61-1.3-2.91-2.91-2.91h-1.57c.18-.38.28-.79.28-1.23,0-1.61-1.3-2.91-2.91-2.91s-2.91,1.3-2.91,2.91c0,.44.11.86.28,1.23h-1.57c-1.61,0-2.91,1.3-2.91,2.91,0,.41.08.79.23,1.14h-.98c-1.61,0-2.91,1.3-2.91,2.91s1.3,2.91,2.91,2.91Z"/></svg>